<svg xmlns="http://www.w3.org/2000/svg" viewBox="0 0 512 512" width="512" height="512"><g fill="#7EC9C3"><path d="M256 136.533c-65.877 0-119.467 53.589-119.467 119.467S190.123 375.467 256 375.467 375.467 321.877 375.467 256 321.877 136.533 256 136.533zm0 213.334c-51.755 0-93.867-42.112-93.867-93.867s42.112-93.867 93.867-93.867 93.867 42.112 93.867 93.867-42.112 93.867-93.867 93.867z"/><path d="M256 179.2c-42.342 0-76.8 34.458-76.8 76.8s34.458 76.8 76.8 76.8 76.8-34.458 76.8-76.8-34.458-76.8-76.8-76.8z"/><path d="M366.225 68.267h-220.45c-42.735 0-77.508 34.773-77.508 77.508v220.45c0 42.735 34.773 77.508 77.508 77.508h220.45c42.735 0 77.508-34.773 77.508-77.508v-220.45c0-42.735-34.773-77.508-77.508-77.508zM256 392.533c-75.281 0-136.533-61.252-136.533-136.533S180.719 119.467 256 119.467 392.533 180.719 392.533 256 331.281 392.533 256 392.533zm136.533-247.466c-14.14 0-25.6-11.46-25.6-25.6s11.46-25.6 25.6-25.6 25.6 11.46 25.6 25.6-11.46 25.6-25.6 25.6z"/><path d="M366.225 0h-220.45C65.399 0 0 65.399 0 145.775v220.45C0 446.601 65.399 512 145.775 512h220.45C446.601 512 512 446.601 512 366.225v-220.45C512 65.399 446.601 0 366.225 0zM460.8 366.225c0 52.147-42.428 94.575-94.575 94.575h-220.45c-52.147 0-94.575-42.428-94.575-94.575v-220.45c0-52.147 42.428-94.575 94.575-94.575h220.45c52.147 0 94.575 42.428 94.575 94.575v220.45z"/></g></svg>