<svg xmlns="http://www.w3.org/2000/svg" width="512" height="512" viewBox="0 0 94.69 94.691"><path d="M62.695 10.642l-15.35 48.393-15.349-48.393C13.737 16.918 0 33.943 0 53.461c0 11.756 4.796 22.597 12.555 30.587h22.254l2.333-10.117C10.556 63.514 15.583 31.235 25.221 25.966c1.144.344 17.908 57.844 17.908 57.844h8.431s16.765-57.5 17.908-57.844c9.639 5.269 14.664 37.548-11.922 47.965l2.334 10.117h22.254c7.76-7.99 12.556-18.831 12.556-30.587 0-19.518-13.737-36.543-31.995-42.819z" fill="#7EC9C3"/></svg>