<svg xmlns="http://www.w3.org/2000/svg" xmlns:xlink="http://www.w3.org/1999/xlink" width="15" height="17" viewBox="0 0 15 17" cursor="pointer">
  <defs>
    <style>
      .cls-1 {
        fill: #7ec9c3;
        fill-rule: evenodd;
        filter: url(#filter);
      }
    </style>
    <filter id="filter" x="1000" y="26" width="15" height="17" filterUnits="userSpaceOnUse">
      <feFlood result="flood" flood-color="#7ec9c3"/>
      <feComposite result="composite" operator="in" in2="SourceGraphic"/>
      <feBlend result="blend" in2="SourceGraphic"/>
    </filter>
  </defs>
  <path id="В" class="cls-1" d="M1013.96,35.031a5.312,5.312,0,0,0-2.79-1.352V33.588a3.974,3.974,0,0,0,1.9-1.426,3.783,3.783,0,0,0,.68-2.213,3.6,3.6,0,0,0-.49-1.894,3.552,3.552,0,0,0-1.51-1.312,6.488,6.488,0,0,0-2-.6,25.5,25.5,0,0,0-3.13-.143h-6.634V42.989h7.514a13.471,13.471,0,0,0,3.22-.319,6.887,6.887,0,0,0,2.33-1.072,4.7,4.7,0,0,0,1.42-1.586,4.451,4.451,0,0,0,.53-2.225A3.7,3.7,0,0,0,1013.96,35.031Zm-5.21-3.246a1.446,1.446,0,0,1-.78.662,2.971,2.971,0,0,1-1.01.239c-0.32.016-.88,0.023-1.69,0.023h-0.59V29.115H1005c0.84,0,1.48.005,1.9,0.017a3.207,3.207,0,0,1,1.1.2,1.376,1.376,0,0,1,.73.627,1.723,1.723,0,0,1,.23.845A2.177,2.177,0,0,1,1008.75,31.785Zm1.1,7.022a1.841,1.841,0,0,1-.94.736,4.256,4.256,0,0,1-1.43.308c-0.48.015-1.32,0.023-2.55,0.023h-0.25V35.619h0.87q1.26,0,2.01.017a4.04,4.04,0,0,1,1.18.165,2.179,2.179,0,0,1,1.06.673,1.967,1.967,0,0,1,.35,1.232A2.049,2.049,0,0,1,1009.85,38.808Z" transform="translate(-1000 -26)"/>
</svg>
