<svg xmlns="http://www.w3.org/2000/svg" viewBox="0 0 489.866 489.866" width="512" height="512"><path d="M179.733 95.266h129.2c25.8-33.5 26.8-58.6 27.2-60.1 2.7-21.7-17.1-38.8-38.4-34.5-16.3 3.9-34.1 5.8-53.1 5.8s-36.9-1.9-53.1-5.4c-21.3-4.7-41.5 12.8-38.8 34.1.3 1.9 4.4 34.5 27 60.1zm135 21.1h-140.4c-59.4 45.8-100.9 142.4-100.9 223.4 0 110.6 76.8 150.1 171.5 150.1s171.5-40 171.5-150.1c-.4-81-41.9-177.6-101.7-223.4zm-54.6 275.5v10.5c0 8.4-6.8 15.2-15.2 15.2-8.4 0-15.2-6.8-15.2-15.2v-10.5c-8.9-2.7-17-7.6-23.5-14.5-5.7-6.1-5.5-15.7.7-21.5 6.1-5.7 15.7-5.5 21.5.7 4.3 4.6 10.2 7.2 16.6 7.2 12.5 0 22.7-10.2 22.7-22.7s-10.2-22.7-22.7-22.7c-29.3 0-53.1-23.8-53.1-53.1 0-24 16-44.3 37.9-50.9v-10.5c0-8.4 6.8-15.2 15.2-15.2 8.4 0 15.2 6.8 15.2 15.2v10.5c8.9 2.7 17 7.6 23.5 14.5 5.7 6.1 5.5 15.7-.6 21.5-6.1 5.7-15.7 5.5-21.5-.6-4.3-4.6-10.2-7.2-16.6-7.2-12.5 0-22.7 10.2-22.7 22.7s10.2 22.7 22.7 22.7c29.3 0 53.1 23.8 53.1 53.1-.1 24-16.1 44.3-38 50.8z" fill="#7EC9C3"/></svg>